<?xml version="1.0" encoding="UTF-8"?><svg xmlns="http://www.w3.org/2000/svg" xmlns:xlink="http://www.w3.org/1999/xlink" viewBox="0 0 410.6 413.51"><defs><style>.cls-1{stroke:url(#linear-gradient-8);}.cls-1,.cls-2,.cls-3,.cls-4,.cls-5,.cls-6,.cls-7,.cls-8,.cls-9,.cls-10,.cls-11,.cls-12,.cls-13,.cls-14{fill:none;stroke-miterlimit:10;}.cls-1,.cls-2,.cls-3,.cls-4,.cls-5,.cls-6,.cls-7,.cls-8,.cls-9,.cls-10,.cls-12,.cls-13,.cls-14{stroke-width:2px;}.cls-15{fill:#e07b53;}.cls-2{stroke:url(#linear-gradient-5);}.cls-16{fill:#e27e3e;}.cls-3{stroke:url(#linear-gradient-4);}.cls-17{fill:#f7941d;}.cls-4{stroke:url(#linear-gradient-10);}.cls-5{stroke:#006838;}.cls-6{stroke:url(#linear-gradient-6);}.cls-7{stroke:url(#linear-gradient-3);}.cls-8{stroke:url(#linear-gradient-7);}.cls-9{stroke:#e27e3c;}.cls-10{stroke:url(#linear-gradient-2);}.cls-11{stroke:#6d6e71;stroke-width:3px;}.cls-18{fill:#d56e3c;}.cls-19{fill:#fff;opacity:.47;}.cls-12{stroke:url(#linear-gradient);}.cls-20{fill:#006838;}.cls-21{fill:#a54724;}.cls-13{stroke:url(#linear-gradient-9);}.cls-14{stroke:url(#linear-gradient-11);}.cls-22{fill:#446328;}.cls-23{fill:#e9d8a7;opacity:.47;}</style><linearGradient id="linear-gradient" x1="232.68" y1="338.12" x2="232.68" y2="268.01" gradientTransform="translate(5.32 -3.29) rotate(1.01)" gradientUnits="userSpaceOnUse"><stop offset="0" stop-color="#006838"/><stop offset="1" stop-color="#e27e3c"/></linearGradient><linearGradient id="linear-gradient-2" x1="199.75" y1="340.09" x2="199.75" y2="261.88" xlink:href="#linear-gradient"/><linearGradient id="linear-gradient-3" x1="181.59" y1="314.32" x2="181.59" y2="250.43" xlink:href="#linear-gradient"/><linearGradient id="linear-gradient-4" x1="164.11" y1="325.18" x2="164.11" y2="259.52" xlink:href="#linear-gradient"/><linearGradient id="linear-gradient-5" x1="172.4" y1="356.49" x2="172.4" y2="290.83" gradientTransform="translate(4.3 94.44) rotate(.87) scale(1 .66) skewX(-.23)" gradientUnits="userSpaceOnUse"><stop offset="0" stop-color="#006838"/><stop offset="1" stop-color="#e27e3c"/></linearGradient><linearGradient id="linear-gradient-6" x1="153.04" y1="316.69" x2="153.04" y2="268.19" xlink:href="#linear-gradient"/><linearGradient id="linear-gradient-7" x1="218.84" y1="309.04" x2="218.84" y2="251.04" xlink:href="#linear-gradient"/><linearGradient id="linear-gradient-8" x1="210.93" y1="326.27" x2="210.93" y2="268.27" gradientTransform="translate(5.32 -3.29) rotate(1.01)" gradientUnits="userSpaceOnUse"><stop offset="0" stop-color="#006838"/><stop offset="1" stop-color="#e27e3c" stop-opacity=".4"/></linearGradient><linearGradient id="linear-gradient-9" x1="190.59" y1="322.4" x2="190.59" y2="264.4" xlink:href="#linear-gradient-8"/><linearGradient id="linear-gradient-10" x1="245.59" y1="322.57" x2="245.59" y2="250.36" xlink:href="#linear-gradient"/><linearGradient id="linear-gradient-11" x1="257.6" y1="315.7" x2="257.6" y2="266.53" xlink:href="#linear-gradient"/></defs><g id="Layer_2"><circle class="cls-23" cx="205.71" cy="206.76" r="157.8"/></g><g id="Layer_3"><line class="cls-11" x1="239.53" y1="140.66" x2="247.87" y2="139.81"/><line class="cls-11" x1="171.96" y1="140.23" x2="164.13" y2="140.23"/><path class="cls-15" d="M207.02,174.74l7.19,1.49s-.26-1.11-2.51,2.17-4.68,3.15-4.68,3.15c0,0-4.17.89-6.04-1.53s-2.75-3.8-4.43-4.13,10.47-1.15,10.47-1.15Z"/><path class="cls-21" d="M196.81,176.23h18.04s3.13-.7-.96-2.21c-2.21-.81-3.04-1.57-3.04-1.57,0,0-2.32-2.04-4.44,0,0,0-.54.81-1.65-.04s-1.79-1.7-4.47,0-1.44,1-3.11,2c-1.03.62-3.19,1.23-.38,1.83Z"/><path class="cls-16" d="M216.89,75.13s-57.53-12.6-61.96,48c.09.3,30.21-11.32,43.57-22.47,2.24-1.93,10.88-16.24,13.96-15.32,0,0-9.19,21.11-22.47,26.55-13.28,5.45-37.45,16-37.45,16,0,0-25.53,13.62-13.62,35.4s-10.55,26.89-10.55,26.89l-3.23,1.19s-12.94-9.36,0-17.36c0,0,9.7-3.91,8.68,4.09s2.55-.51,2.55-.51c0,0,2.38-12.6-14.81-6.81,0,0-12.43,9.53-.17,22.81,0,0-.17,3.23-2.38,10.72s4.09,15.66,4.09,15.66c0,0,8.34,7.15,6.13,10.21,0,0-.34,6.3-8.85,2.89,0,0-4.09-3.74,3.4-5.79-5.11-4.09-6.81,3.74-6.81,3.74,0,0,2.38,13.79,14.81,1.36,0,0,6.13-11.4-1.36-18.04s5.28-17.7,5.28-17.7c0,0,20.94-10.89,17.19-26.21-3.74-15.32-3.74-26.21,4.26-32.17s16.68-12.43,35.74-16.85,30.47-27.74,24-46.3Z"/><path class="cls-21" d="M164.98,138.79s-12.26,3.91-9.36,18.38c0,0,22.81,16.51,13.45,33.53,0,0-3.06,6.98-8,9.19s-7.24,12.44-7.32,14.13c-.23,4.97.18,24.75-2.04,23.57,0,0-3.23,8.6-9.7,10.3s-22.47,21.79.85,30.81c0,0-10.04-11.06-3.23-17.53s25.02-12.43,19.57-29.79c12.26-4.94,22.81-13.28,25.02-26.04s.85-21.45.85-21.45c0,0-12.77-2.21-20.09-45.11Z"/><path class="cls-18" d="M155.96,162.96s24.51,18.72-1.36,37.28c0,0-6.88,5.9-4.43,21.11s-10.04,22.98-10.04,22.98c0,0-23.29,12.6-9.52,30.81s14.11,10.55,17.52,27.23c0,0-5.76,18.55-17.52,19.23,0,0-15.16,4.94-22.99-6.81s6.81-20.43,14.13-18.55,10.72,13.96.85,13.11c0,0,8.22-4.6.68-8.68s-12.26,4.26-12.26,4.26c0,0-2.86,21.62,19.59,8.68s-1.89-30.64-6.48-32.51-22.64-18.55-.85-37.11c0,0,14.3-2.04,14.13-19.23,0,0-10.38-22.64,5.28-28.43s18.75-23.33,13.28-33.36Z"/><path class="cls-16" d="M223.06,76.74c-2.1.88,32.42-2.52,34.19,46.38,0,0-11.34-5.91-23.59-16-6.56-5.23-7.24-12.33-10.34-12.64.26,2.37,10.62,19.45,15.45,21.96,12.74,6.61,20.87,11.45,20.87,11.45,0,0,25.53,13.62,13.62,35.4-11.91,21.79,10.55,26.89,10.55,26.89l3.23,1.19s12.94-9.36,0-17.36c0,0-9.7-3.91-8.68,4.09s-2.55-.51-2.55-.51c0,0-2.38-12.6,14.81-6.81,0,0,12.43,9.53.17,22.81,0,0,.17,3.23,2.38,10.72s-4.09,15.66-4.09,15.66c0,0-8.34,7.15-6.13,10.21,0,0,.34,6.3,8.85,2.89,0,0,4.09-3.74-3.4-5.79,5.11-4.09,6.81,3.74,6.81,3.74,0,0-2.38,13.79-14.81,1.36,0,0-6.13-11.4,1.36-18.04s-5.28-17.7-5.28-17.7c0,0-20.94-10.89-17.19-26.21,3.74-15.32,2.2-24.57-4.26-32.17-5.86-6.9-15-4.54-27.76-20.3-7.34-9.07-6.56-29.71-4.21-41.23Z"/><path class="cls-21" d="M247.21,138.79s12.26,3.91,9.36,18.38c0,0-22.81,16.51-13.45,33.53,0,0,3.06,6.98,8,9.19s8.51,12.94,7.32,14.13-.85,22.98,2.04,23.57c0,0,3.23,8.6,9.7,10.3s22.47,21.79-.85,30.81c0,0,10.04-11.06,3.23-17.53s-25.02-12.43-19.57-29.79c-12.26-4.94-22.81-13.28-25.02-26.04s-.85-21.45-.85-21.45c0,0,12.77-2.21,20.09-45.11Z"/><path class="cls-18" d="M256.23,162.96s-24.51,18.72,1.36,37.28c0,0,6.88,5.9,4.43,21.11-2.46,15.21,10.04,22.98,10.04,22.98,0,0,23.29,12.6,9.52,30.81-13.77,18.21-14.11,10.55-17.52,27.23,0,0,5.76,18.55,17.52,19.23,0,0,15.16,4.94,22.99-6.81s-6.81-20.43-14.13-18.55-10.72,13.96-.85,13.11c0,0-8.22-4.6-.68-8.68s12.26,4.26,12.26,4.26c0,0,2.86,21.62-19.59,8.68-22.45-12.94,1.89-30.64,6.48-32.51s22.64-18.55.85-37.11c0,0-14.3-2.04-14.13-19.23,0,0,10.38-22.64-5.28-28.43-15.66-5.79-18.75-23.33-13.28-33.36Z"/><circle class="cls-11" cx="185.48" cy="144.35" r="12.82"/><circle class="cls-11" cx="226.71" cy="144.35" r="12.82"/><path class="cls-11" d="M198.2,141.32c4.64-4.38,11.78-4.06,15.95.36"/><path class="cls-22" d="M297.15,242.79s6.04-3.24,7.66-6.3-.6-7.23-.6-7.23c0,0-6.64-7.15-1.45-14.3s6.3,7.32,6.3,7.32c0,0-.5,5.57-2.25,7.4s-.64,3.06-.64,3.06c0,0,.6.43.09,2.47s9.36-7.66,10.64-9.53l1.28-1.87s1.19-8.51.68-13.62c0,0-4.17-5.87-2.64-9.11s2.89-6.47,5.19-3.91,2.52,7.34,0,10.38-1.62,4-1.62,4c0,0,1.32,10.5-.34,11.66s3.4-1.79,5.79-6.47,7.23-11.4,10.81-23.15c0,0-2.81-4.6-.34-9.87s7.49-1.7,7.49-1.7c0,0,2.3,4.43-2.21,9.79s-2.13-.43-4.6,7.32c-2.47,7.74-5.96,12.09-8.09,15.83s-2.55,3.23.34,2.81,2.72-.77,5.11-3.23,6.55-5.45,11.91-1.79-.43,7.15-6.72,7.06-7.49-1.87-11.15-.09-1.11-.6-6.38,3.91,1.87.09-16.6,15.15c0,0-3.15.68,4.51.77l3.83.09s4.43-8.26,15.32-2.81c0,0,2.81,5.53-9.79,6.47,0,0-3.57-2.13-10.04-1.96s-5.45-.77-5.45-.77c0,0-2.47,2.55-5.28,3.83s-.77-1.61-.77-1.61Z"/><path class="cls-22" d="M115.28,242.79s-6.04-3.24-7.66-6.3.6-7.23.6-7.23c0,0,6.64-7.15,1.45-14.3s-6.3,7.32-6.3,7.32c0,0,.5,5.57,2.25,7.4s.64,3.06.64,3.06c0,0-.6.43-.09,2.47s-9.36-7.66-10.64-9.53l-1.28-1.87s-1.19-8.51-.68-13.62c0,0,4.17-5.87,2.64-9.11s-2.89-6.47-5.19-3.91-2.52,7.34,0,10.38,1.62,4,1.62,4c0,0-1.32,10.5.34,11.66s-3.4-1.79-5.79-6.47-7.23-11.4-10.81-23.15c0,0,2.81-4.6.34-9.87s-7.49-1.7-7.49-1.7c0,0-2.3,4.43,2.21,9.79s2.13-.43,4.6,7.32,5.96,12.09,8.09,15.83,2.55,3.23-.34,2.81-2.72-.77-5.11-3.23-6.55-5.45-11.91-1.79.43,7.15,6.72,7.06,7.49-1.87,11.15-.09,1.11-.6,6.38,3.91-1.87.09,16.6,15.15c0,0,3.15.68-4.51.77l-3.83.09s-4.43-8.26-15.32-2.81c0,0-2.81,5.53,9.79,6.47,0,0,3.57-2.13,10.04-1.96s5.45-.77,5.45-.77c0,0,2.47,2.55,5.28,3.83s.77-1.61.77-1.61Z"/></g><g id="Layer_4"><path class="cls-5" d="M228.6,345.53c-1.63-1.83-1.29-4.5.75-5.96s5.02-1.16,6.64.67,1.29,4.5-.75,5.96-5.02,1.16-6.64-.67Z"/><path class="cls-5" d="M206.9,333.38c-1.63-1.83-1.29-4.5.75-5.96s5.02-1.16,6.64.67,1.29,4.5-.75,5.96-5.02,1.16-6.64-.67Z"/><path class="cls-5" d="M214.75,316.61c-1.63-1.83-1.29-4.5.75-5.96s5.02-1.16,6.64.67,1.29,4.5-.75,5.96-5.02,1.16-6.64-.67Z"/><line class="cls-12" x1="232.3" y1="338.65" x2="232.99" y2="268.6"/><circle class="cls-5" cx="199.41" cy="344.76" r="4.73" transform="translate(-70.44 51.84) rotate(-12.61)"/><circle class="cls-9" cx="200.1" cy="257.4" r="4.5"/><circle class="cls-9" cx="164.65" cy="255.18" r="4.5"/><path class="cls-9" d="M178.74,246.71c-.07-2.04,1.46-3.81,3.43-3.96s3.63,1.37,3.7,3.41-1.46,3.81-3.43,3.96-3.63-1.37-3.7-3.41Z"/><path class="cls-9" d="M215.64,247.77c-.07-2.04,1.46-3.81,3.43-3.96s3.63,1.37,3.7,3.41-1.46,3.81-3.43,3.96-3.63-1.37-3.7-3.41Z"/><path class="cls-9" d="M254.6,263.36c-.07-2.04,1.46-3.81,3.43-3.96s3.63,1.37,3.7,3.41-1.46,3.81-3.43,3.96-3.63-1.37-3.7-3.41Z"/><path class="cls-9" d="M150.03,264.04c-.07-2.04,1.46-3.81,3.43-3.96s3.63,1.37,3.7,3.41-1.46,3.81-3.43,3.96-3.63-1.37-3.7-3.41Z"/><path class="cls-9" d="M169.15,286.03c-.07-2.04,1.46-3.81,3.43-3.96s3.63,1.37,3.7,3.41-1.46,3.81-3.43,3.96-3.63-1.37-3.7-3.41Z"/><line class="cls-10" x1="199.41" y1="340.04" x2="200.1" y2="261.9"/><path class="cls-5" d="M177.89,320.24c-1.63-1.67-1.29-4.1.75-5.43s5.02-1.06,6.64.61,1.29,4.1-.75,5.43-5.02,1.06-6.64-.61Z"/><line class="cls-7" x1="181.58" y1="313.97" x2="182.27" y2="250.14"/><path class="cls-5" d="M160.23,330.95c-1.63-1.71-1.29-4.21.75-5.58s5.02-1.08,6.64.63,1.29,4.21-.75,5.58-5.02,1.08-6.64-.63Z"/><path class="cls-5" d="M149.1,322.94c-1.63-1.71-1.29-4.21.75-5.58s5.02-1.08,6.64.63,1.29,4.21-.75,5.58-5.02,1.08-6.64-.63Z"/><line class="cls-3" x1="163.92" y1="324.51" x2="164.61" y2="258.91"/><line class="cls-2" x1="171.9" y1="333.97" x2="172.35" y2="290.34"/><line class="cls-6" x1="152.86" y1="315.83" x2="153.54" y2="267.38"/><line class="cls-8" x1="218.86" y1="309.35" x2="219.55" y2="251.4"/><line class="cls-1" x1="210.65" y1="326.42" x2="211.34" y2="268.47"/><line class="cls-13" x1="190.38" y1="322.21" x2="191.07" y2="264.26"/><path class="cls-5" d="M241.8,330.42c-1.63-1.89-1.29-4.63.75-6.13s5.02-1.19,6.64.69,1.29,4.63-.75,6.13-5.02,1.19-6.64-.69Z"/><path class="cls-5" d="M254.26,321.67c-1.32-1.43-1.1-3.62.5-4.87s3.96-1.12,5.29.32,1.1,3.62-.5,4.87-3.96,1.12-5.29-.32Z"/><path class="cls-9" d="M242.17,248.91c-1.12-2.05-.22-4.55,2-5.58s4.92-.2,6.04,1.85.22,4.55-2,5.58-4.92.2-6.04-1.85Z"/><path class="cls-9" d="M229,266.59c-1.12-2.05-.22-4.55,2-5.58s4.92-.2,6.04,1.85.22,4.55-2,5.58-4.92.2-6.04-1.85Z"/><line class="cls-4" x1="245.5" y1="323.34" x2="246.19" y2="251.19"/><line class="cls-14" x1="257.42" y1="316.68" x2="258.11" y2="267.56"/><path class="cls-20" d="M323,258.13s-15.47,27.61-36.15,29.91c0,0-2.04.6-5.27,3.57,0,0,.93-1.96,9.27-3.57s19.32-10.3,19.32-10.3c0,0,10.08-10.14,13.79-19.26s-.96-.35-.96-.35Z"/><ellipse class="cls-17" cx="325.34" cy="253.74" rx="5.21" ry="4.91"/><ellipse class="cls-19" cx="325.34" cy="251.2" rx="2.34" ry="1.7"/><path class="cls-20" d="M301.79,283.41s11.11-4.63,14.43,0-3.32,1.31-3.32,1.31c0,0-7.19-1.94-14.94.76s3.84-2.07,3.84-2.07Z"/><path class="cls-20" d="M88.44,258.13s15.47,27.61,36.15,29.91c0,0,2.04.6,5.27,3.57,0,0-.93-1.96-9.27-3.57s-19.32-10.3-19.32-10.3c0,0-10.08-10.14-13.79-19.26s.96-.35.96-.35Z"/><ellipse class="cls-17" cx="86.1" cy="253.74" rx="5.21" ry="4.91"/><ellipse class="cls-19" cx="86.1" cy="251.2" rx="2.34" ry="1.7"/><path class="cls-20" d="M109.65,283.41s-11.11-4.63-14.43,0,3.32,1.31,3.32,1.31c0,0,7.19-1.94,14.94.76s-3.84-2.07-3.84-2.07Z"/></g></svg>